<?xml version="1.0" encoding="utf-8"?><svg width="auto" height="2120" style="overflow:visible " version="1.1" xmlns="http://www.w3.org/2000/svg"><rect x="20" y="20" width="200" height="40" style="fill:white;stroke:black;stroke-width:1" /><text x="30" y="30" font-size="10" style="fill:blue">circuito</text><rect x="240" y="20" width="200" height="40" style="fill:white;stroke:black;stroke-width:1" /><text x="250" y="30" font-size="10" style="fill:blue">nombre</text><path d="M220 40 C240 40 220 40 240 40" style="fill:transparent;stroke:black" /><rect x="306" y="20" width="137" height="40" style="fill:green;stroke:black;stroke-width:1" /><text x="316" y="30" font-size="8" style="fill:white">Circuito callejero de Bakú</text><rect x="240" y="70" width="200" height="40" style="fill:white;stroke:black;stroke-width:1" /><text x="250" y="80" font-size="10" style="fill:blue">longitud</text><path d="M220 40 C240 40 220 90 240 90" style="fill:transparent;stroke:black" /><rect x="306" y="70" width="137" height="40" style="fill:green;stroke:black;stroke-width:1" /><text x="316" y="80" font-size="8" style="fill:white">6.003 km</text><rect x="240" y="120" width="200" height="40" style="fill:white;stroke:black;stroke-width:1" /><text x="250" y="130" font-size="10" style="fill:blue">anchura</text><path d="M220 40 C240 40 220 140 240 140" style="fill:transparent;stroke:black" /><rect x="306" y="120" width="137" height="40" style="fill:green;stroke:black;stroke-width:1" /><text x="316" y="130" font-size="8" style="fill:white">13 metros</text><rect x="240" y="170" width="200" height="40" style="fill:white;stroke:black;stroke-width:1" /><text x="250" y="180" font-size="10" style="fill:blue">fecha</text><path d="M220 40 C240 40 220 190 240 190" style="fill:transparent;stroke:black" /><rect x="306" y="170" width="137" height="40" style="fill:green;stroke:black;stroke-width:1" /><text x="316" y="180" font-size="8" style="fill:white">04/06/2024</text><rect x="240" y="220" width="200" height="40" style="fill:white;stroke:black;stroke-width:1" /><text x="250" y="230" font-size="10" style="fill:blue">hora</text><path d="M220 40 C240 40 220 240 240 240" style="fill:transparent;stroke:black" /><rect x="306" y="220" width="137" height="40" style="fill:green;stroke:black;stroke-width:1" /><text x="316" y="230" font-size="8" style="fill:white">15:00</text><rect x="240" y="270" width="200" height="40" style="fill:white;stroke:black;stroke-width:1" /><text x="250" y="280" font-size="10" style="fill:blue">vueltas</text><path d="M220 40 C240 40 220 290 240 290" style="fill:transparent;stroke:black" /><rect x="306" y="270" width="137" height="40" style="fill:green;stroke:black;stroke-width:1" /><text x="316" y="280" font-size="8" style="fill:white">51</text><rect x="240" y="320" width="200" height="40" style="fill:white;stroke:black;stroke-width:1" /><text x="250" y="330" font-size="10" style="fill:blue">localidad</text><path d="M220 40 C240 40 220 340 240 340" style="fill:transparent;stroke:black" /><rect x="306" y="320" width="137" height="40" style="fill:green;stroke:black;stroke-width:1" /><text x="316" y="330" font-size="8" style="fill:white">Bakú</text><rect x="240" y="370" width="200" height="40" style="fill:white;stroke:black;stroke-width:1" /><text x="250" y="380" font-size="10" style="fill:blue">pais</text><path d="M220 40 C240 40 220 390 240 390" style="fill:transparent;stroke:black" /><rect x="306" y="370" width="137" height="40" style="fill:green;stroke:black;stroke-width:1" /><text x="316" y="380" font-size="8" style="fill:white">Azerbaiyán</text><rect x="240" y="420" width="200" height="40" style="fill:white;stroke:black;stroke-width:1" /><text x="250" y="430" font-size="10" style="fill:blue">coordenadas</text><path d="M220 40 C240 40 220 440 240 440" style="fill:transparent;stroke:black" /><text x="250" y="440" font-size="8" style="fill:black">longitud: 49.8533</text><text x="250" y="450" font-size="8" style="fill:black">latitud: 40.3725</text><text x="250" y="460" font-size="8" style="fill:black">altitud: -28</text><rect x="240" y="470" width="200" height="40" style="fill:white;stroke:black;stroke-width:1" /><text x="250" y="480" font-size="10" style="fill:blue">galeriaFotos</text><path d="M220 40 C240 40 220 490 240 490" style="fill:transparent;stroke:black" /><rect x="460" y="470" width="200" height="40" style="fill:white;stroke:black;stroke-width:1" /><text x="470" y="480" font-size="10" style="fill:blue">foto</text><path d="M440 490 C460 490 440 490 460 490" style="fill:transparent;stroke:black" /><text x="470" y="490" font-size="8" style="fill:black">nombre: aerea_baku.jpg</text><rect x="526" y="470" width="137" height="40" style="fill:green;stroke:black;stroke-width:1" /><text x="536" y="480" font-size="8" style="fill:white">Fotografía aérea del circuito</text><rect x="460" y="520" width="200" height="40" style="fill:white;stroke:black;stroke-width:1" /><text x="470" y="530" font-size="10" style="fill:blue">foto</text><path d="M440 490 C460 490 440 540 460 540" style="fill:transparent;stroke:black" /><text x="470" y="540" font-size="8" style="fill:black">nombre: tramo_baku.jpg</text><rect x="526" y="520" width="137" height="40" style="fill:green;stroke:black;stroke-width:1" /><text x="536" y="530" font-size="8" style="fill:white">Fotografía de uno de los tramos</text><rect x="460" y="570" width="200" height="40" style="fill:white;stroke:black;stroke-width:1" /><text x="470" y="580" font-size="10" style="fill:blue">foto</text><path d="M440 490 C460 490 440 590 460 590" style="fill:transparent;stroke:black" /><text x="470" y="590" font-size="8" style="fill:black">nombre: aerea2_baku.jpg</text><rect x="526" y="570" width="137" height="40" style="fill:green;stroke:black;stroke-width:1" /><text x="536" y="580" font-size="8" style="fill:white">Fotografía del circuito con Baku de fondo</text><rect x="240" y="670" width="200" height="40" style="fill:white;stroke:black;stroke-width:1" /><text x="250" y="680" font-size="10" style="fill:blue">galeriaVideos</text><path d="M220 40 C240 40 220 690 240 690" style="fill:transparent;stroke:black" /><rect x="460" y="670" width="200" height="40" style="fill:white;stroke:black;stroke-width:1" /><text x="470" y="680" font-size="10" style="fill:blue">video</text><path d="M440 690 C460 690 440 690 460 690" style="fill:transparent;stroke:black" /><text x="470" y="690" font-size="8" style="fill:black">nombre: choque_stroll_baku.mp4</text><rect x="526" y="670" width="137" height="40" style="fill:green;stroke:black;stroke-width:1" /><text x="536" y="680" font-size="8" style="fill:white">Choque de Stroll en Bakú</text><rect x="240" y="770" width="200" height="40" style="fill:white;stroke:black;stroke-width:1" /><text x="250" y="780" font-size="10" style="fill:blue">referencias</text><path d="M220 40 C240 40 220 790 240 790" style="fill:transparent;stroke:black" /><rect x="460" y="770" width="200" height="40" style="fill:white;stroke:black;stroke-width:1" /><text x="470" y="780" font-size="10" style="fill:blue">enlace</text><path d="M440 790 C460 790 440 790 460 790" style="fill:transparent;stroke:black" /><text x="470" y="790" font-size="8" style="fill:black">url: https://www.dazn.com/es-ES/news/motor/circuito-baku-donde-esta-como-es-caracteristicas-como-llegar-fotos-escenario-gp-azerbaiyan-mundial-f1/1216g2tjm67qv1vp3xo5ismq36</text><rect x="526" y="770" width="137" height="40" style="fill:green;stroke:black;stroke-width:1" /><text x="536" y="780" font-size="8" style="fill:white">Ficha del circuito en DAZN</text><rect x="460" y="820" width="200" height="40" style="fill:white;stroke:black;stroke-width:1" /><text x="470" y="830" font-size="10" style="fill:blue">enlace</text><path d="M440 790 C460 790 440 840 460 840" style="fill:transparent;stroke:black" /><text x="470" y="840" font-size="8" style="fill:black">url: https://es.wikipedia.org/wiki/Circuito_callejero_de_Bakú</text><rect x="526" y="820" width="137" height="40" style="fill:green;stroke:black;stroke-width:1" /><text x="536" y="830" font-size="8" style="fill:white"> Wikipedia del circuito</text><rect x="460" y="870" width="200" height="40" style="fill:white;stroke:black;stroke-width:1" /><text x="470" y="880" font-size="10" style="fill:blue">enlace</text><path d="M440 790 C460 790 440 890 460 890" style="fill:transparent;stroke:black" /><text x="470" y="890" font-size="8" style="fill:black">url: https://lebalap.academy/f1/circuito-callejero-de-baku/</text><rect x="526" y="870" width="137" height="40" style="fill:green;stroke:black;stroke-width:1" /><text x="536" y="880" font-size="8" style="fill:white">Mapa y tramos del circuito</text><rect x="240" y="970" width="200" height="40" style="fill:white;stroke:black;stroke-width:1" /><text x="250" y="980" font-size="10" style="fill:blue">tramos</text><path d="M220 40 C240 40 220 990 240 990" style="fill:transparent;stroke:black" /><rect x="460" y="970" width="200" height="40" style="fill:white;stroke:black;stroke-width:1" /><text x="470" y="980" font-size="10" style="fill:blue">tramo</text><path d="M440 990 C460 990 440 990 460 990" style="fill:transparent;stroke:black" /><text x="470" y="990" font-size="8" style="fill:black">distancia: 600 m</text><text x="470" y="1000" font-size="8" style="fill:black">sector: 1</text><text x="470" y="1010" font-size="8" style="fill:black">latitud: 40,3741938</text><text x="470" y="1020" font-size="8" style="fill:black">longitud: 49,8542593</text><text x="470" y="1030" font-size="8" style="fill:black">altitud: -0,5167220</text><rect x="460" y="1020" width="200" height="40" style="fill:white;stroke:black;stroke-width:1" /><text x="470" y="1030" font-size="10" style="fill:blue">tramo</text><path d="M440 990 C460 990 440 1040 460 1040" style="fill:transparent;stroke:black" /><text x="470" y="1040" font-size="8" style="fill:black">distancia: 230 m</text><text x="470" y="1050" font-size="8" style="fill:black">sector: 1</text><text x="470" y="1060" font-size="8" style="fill:black">latitud: 40,3741920</text><text x="470" y="1070" font-size="8" style="fill:black">longitud: 49,8469420</text><text x="470" y="1080" font-size="8" style="fill:black">altitud: -0,8070240</text><rect x="460" y="1070" width="200" height="40" style="fill:white;stroke:black;stroke-width:1" /><text x="470" y="1080" font-size="10" style="fill:blue">tramo</text><path d="M440 990 C460 990 440 1090 460 1090" style="fill:transparent;stroke:black" /><text x="470" y="1090" font-size="8" style="fill:black">distancia: 436 m</text><text x="470" y="1100" font-size="8" style="fill:black">sector: 1</text><text x="470" y="1110" font-size="8" style="fill:black">latitud: 40,3729453</text><text x="470" y="1120" font-size="8" style="fill:black">longitud: 49,8473253</text><text x="470" y="1130" font-size="8" style="fill:black">altitud: -0,8068566</text><rect x="460" y="1120" width="200" height="40" style="fill:white;stroke:black;stroke-width:1" /><text x="470" y="1130" font-size="10" style="fill:blue">tramo</text><path d="M440 990 C460 990 440 1140 460 1140" style="fill:transparent;stroke:black" /><text x="470" y="1140" font-size="8" style="fill:black">distancia: 165 m</text><text x="470" y="1150" font-size="8" style="fill:black">sector: 2</text><text x="470" y="1160" font-size="8" style="fill:black">latitud: 40,3729453</text><text x="470" y="1170" font-size="8" style="fill:black">longitud: 49,8448500</text><text x="470" y="1180" font-size="8" style="fill:black">altitud: -0,8067098</text><rect x="460" y="1170" width="200" height="40" style="fill:white;stroke:black;stroke-width:1" /><text x="470" y="1180" font-size="10" style="fill:blue">tramo</text><path d="M440 990 C460 990 440 1190 460 1190" style="fill:transparent;stroke:black" /><text x="470" y="1190" font-size="8" style="fill:black">distancia: 135 m</text><text x="470" y="1200" font-size="8" style="fill:black">sector: 2</text><text x="470" y="1210" font-size="8" style="fill:black">latitud: 40,3697503</text><text x="470" y="1220" font-size="8" style="fill:black">longitud: 49,8424603</text><text x="470" y="1230" font-size="8" style="fill:black">altitud: -0,8068508</text><rect x="460" y="1220" width="200" height="40" style="fill:white;stroke:black;stroke-width:1" /><text x="470" y="1230" font-size="10" style="fill:blue">tramo</text><path d="M440 990 C460 990 440 1240 460 1240" style="fill:transparent;stroke:black" /><text x="470" y="1240" font-size="8" style="fill:black">distancia: 390 m</text><text x="470" y="1250" font-size="8" style="fill:black">sector: 2</text><text x="470" y="1260" font-size="8" style="fill:black">latitud: 40,3696520</text><text x="470" y="1270" font-size="8" style="fill:black">longitud: 49,8420366</text><text x="470" y="1280" font-size="8" style="fill:black">altitud: -0,5167539</text><rect x="460" y="1270" width="200" height="40" style="fill:white;stroke:black;stroke-width:1" /><text x="470" y="1280" font-size="10" style="fill:blue">tramo</text><path d="M440 990 C460 990 440 1290 460 1290" style="fill:transparent;stroke:black" /><text x="470" y="1290" font-size="8" style="fill:black">distancia: 50 m</text><text x="470" y="1300" font-size="8" style="fill:black">sector: 2</text><text x="470" y="1310" font-size="8" style="fill:black">latitud: 40,3709083</text><text x="470" y="1320" font-size="8" style="fill:black">longitud: 49,8435410</text><text x="470" y="1330" font-size="8" style="fill:black">altitud: -0,8322265</text><rect x="460" y="1320" width="200" height="40" style="fill:white;stroke:black;stroke-width:1" /><text x="470" y="1330" font-size="10" style="fill:blue">tramo</text><path d="M440 990 C460 990 440 1340 460 1340" style="fill:transparent;stroke:black" /><text x="470" y="1340" font-size="8" style="fill:black">distancia: 177 m</text><text x="470" y="1350" font-size="8" style="fill:black">sector: 2</text><text x="470" y="1360" font-size="8" style="fill:black">latitud: 40,3671990</text><text x="470" y="1370" font-size="8" style="fill:black">longitud: 49,8380384</text><text x="470" y="1380" font-size="8" style="fill:black">altitud: -0,5107432</text><rect x="460" y="1370" width="200" height="40" style="fill:white;stroke:black;stroke-width:1" /><text x="470" y="1380" font-size="10" style="fill:blue">tramo</text><path d="M440 990 C460 990 440 1390 460 1390" style="fill:transparent;stroke:black" /><text x="470" y="1390" font-size="8" style="fill:black">distancia: 48 m</text><text x="470" y="1400" font-size="8" style="fill:black">sector: 2</text><text x="470" y="1410" font-size="8" style="fill:black">latitud: 40,3686069</text><text x="470" y="1420" font-size="8" style="fill:black">longitud: 49,8372440</text><text x="470" y="1430" font-size="8" style="fill:black">altitud: -0,5107667</text><rect x="460" y="1420" width="200" height="40" style="fill:white;stroke:black;stroke-width:1" /><text x="470" y="1430" font-size="10" style="fill:blue">tramo</text><path d="M440 990 C460 990 440 1440 460 1440" style="fill:transparent;stroke:black" /><text x="470" y="1440" font-size="8" style="fill:black">distancia: 60 m</text><text x="470" y="1450" font-size="8" style="fill:black">sector: 2</text><text x="470" y="1460" font-size="8" style="fill:black">latitud: 40,3686214</text><text x="470" y="1470" font-size="8" style="fill:black">longitud: 49,8369325</text><text x="470" y="1480" font-size="8" style="fill:black">altitud: -0,5107327</text><rect x="460" y="1470" width="200" height="40" style="fill:white;stroke:black;stroke-width:1" /><text x="470" y="1480" font-size="10" style="fill:blue">tramo</text><path d="M440 990 C460 990 440 1490 460 1490" style="fill:transparent;stroke:black" /><text x="470" y="1490" font-size="8" style="fill:black">distancia: 70 m</text><text x="470" y="1500" font-size="8" style="fill:black">sector: 2</text><text x="470" y="1510" font-size="8" style="fill:black">latitud: 40,3689596</text><text x="470" y="1520" font-size="8" style="fill:black">longitud: 49,8366007</text><text x="470" y="1530" font-size="8" style="fill:black">altitud: -0,5167416</text><rect x="460" y="1520" width="200" height="40" style="fill:white;stroke:black;stroke-width:1" /><text x="470" y="1530" font-size="10" style="fill:blue">tramo</text><path d="M440 990 C460 990 440 1540 460 1540" style="fill:transparent;stroke:black" /><text x="470" y="1540" font-size="8" style="fill:black">distancia: 275 m</text><text x="470" y="1550" font-size="8" style="fill:black">sector: 2</text><text x="470" y="1560" font-size="8" style="fill:black">latitud: 40,3689092</text><text x="470" y="1570" font-size="8" style="fill:black">longitud: 49,8344397</text><text x="470" y="1580" font-size="8" style="fill:black">altitud: -0,5168007</text><rect x="460" y="1570" width="200" height="40" style="fill:white;stroke:black;stroke-width:1" /><text x="470" y="1580" font-size="10" style="fill:blue">tramo</text><path d="M440 990 C460 990 440 1590 460 1590" style="fill:transparent;stroke:black" /><text x="470" y="1590" font-size="8" style="fill:black">distancia: 215 m</text><text x="470" y="1600" font-size="8" style="fill:black">sector: 2</text><text x="470" y="1610" font-size="8" style="fill:black">latitud: 40,3680728</text><text x="470" y="1620" font-size="8" style="fill:black">longitud: 49,8321677</text><text x="470" y="1630" font-size="8" style="fill:black">altitud: 1,0812609</text><rect x="460" y="1620" width="200" height="40" style="fill:white;stroke:black;stroke-width:1" /><text x="470" y="1630" font-size="10" style="fill:blue">tramo</text><path d="M440 990 C460 990 440 1640 460 1640" style="fill:transparent;stroke:black" /><text x="470" y="1640" font-size="8" style="fill:black">distancia: 240 m</text><text x="470" y="1650" font-size="8" style="fill:black">sector: 2</text><text x="470" y="1660" font-size="8" style="fill:black">latitud: 40,3662765</text><text x="470" y="1670" font-size="8" style="fill:black">longitud: 49,8311510</text><text x="470" y="1680" font-size="8" style="fill:black">altitud: 1,2702219</text><rect x="460" y="1670" width="200" height="40" style="fill:white;stroke:black;stroke-width:1" /><text x="470" y="1680" font-size="10" style="fill:blue">tramo</text><path d="M440 990 C460 990 440 1690 460 1690" style="fill:transparent;stroke:black" /><text x="470" y="1690" font-size="8" style="fill:black">distancia: 336 m</text><text x="470" y="1700" font-size="8" style="fill:black">sector: 2</text><text x="470" y="1710" font-size="8" style="fill:black">latitud: 40,3639326</text><text x="470" y="1720" font-size="8" style="fill:black">longitud: 49,8314986</text><text x="470" y="1730" font-size="8" style="fill:black">altitud: -0,5167343</text><rect x="460" y="1720" width="200" height="40" style="fill:white;stroke:black;stroke-width:1" /><text x="470" y="1730" font-size="10" style="fill:blue">tramo</text><path d="M440 990 C460 990 440 1740 460 1740" style="fill:transparent;stroke:black" /><text x="470" y="1740" font-size="8" style="fill:black">distancia: 200 m</text><text x="470" y="1750" font-size="8" style="fill:black">sector: 3</text><text x="470" y="1760" font-size="8" style="fill:black">latitud: 40,3630634</text><text x="470" y="1770" font-size="8" style="fill:black">longitud: 49,8335785</text><text x="470" y="1780" font-size="8" style="fill:black">altitud: -0,5166677</text><rect x="460" y="1770" width="200" height="40" style="fill:white;stroke:black;stroke-width:1" /><text x="470" y="1780" font-size="10" style="fill:blue">tramo</text><path d="M440 990 C460 990 440 1790 460 1790" style="fill:transparent;stroke:black" /><text x="470" y="1790" font-size="8" style="fill:black">distancia: 245 m</text><text x="470" y="1800" font-size="8" style="fill:black">sector: 3</text><text x="470" y="1810" font-size="8" style="fill:black">latitud: 40,3638564</text><text x="470" y="1820" font-size="8" style="fill:black">longitud: 49,8357017</text><text x="470" y="1830" font-size="8" style="fill:black">altitud: -0,5167048</text><rect x="460" y="1820" width="200" height="40" style="fill:white;stroke:black;stroke-width:1" /><text x="470" y="1830" font-size="10" style="fill:blue">tramo</text><path d="M440 990 C460 990 440 1840 460 1840" style="fill:transparent;stroke:black" /><text x="470" y="1840" font-size="8" style="fill:black">distancia: 150 m</text><text x="470" y="1850" font-size="8" style="fill:black">sector: 3</text><text x="470" y="1860" font-size="8" style="fill:black">latitud: 40,3709083</text><text x="470" y="1870" font-size="8" style="fill:black">longitud: 49,8435410</text><text x="470" y="1880" font-size="8" style="fill:black">altitud: -0,8322265</text><rect x="460" y="1870" width="200" height="40" style="fill:white;stroke:black;stroke-width:1" /><text x="470" y="1880" font-size="10" style="fill:blue">tramo</text><path d="M440 990 C460 990 440 1890 460 1890" style="fill:transparent;stroke:black" /><text x="470" y="1890" font-size="8" style="fill:black">distancia: 400 m</text><text x="470" y="1900" font-size="8" style="fill:black">sector: 3</text><text x="470" y="1910" font-size="8" style="fill:black">latitud: 40,3671145</text><text x="470" y="1920" font-size="8" style="fill:black">longitud: 49,8380613</text><text x="470" y="1930" font-size="8" style="fill:black">altitud: -0,5166523</text><rect x="460" y="1920" width="200" height="40" style="fill:white;stroke:black;stroke-width:1" /><text x="470" y="1930" font-size="10" style="fill:blue">tramo</text><path d="M440 990 C460 990 440 1940 460 1940" style="fill:transparent;stroke:black" /><text x="470" y="1940" font-size="8" style="fill:black">distancia: 1200 m</text><text x="470" y="1950" font-size="8" style="fill:black">sector: 3</text><text x="470" y="1960" font-size="8" style="fill:black">latitud: 40,3691367</text><text x="470" y="1970" font-size="8" style="fill:black">longitud: 49,8423912</text><text x="470" y="1980" font-size="8" style="fill:black">altitud: -0,5167058</text><rect x="460" y="1970" width="200" height="40" style="fill:white;stroke:black;stroke-width:1" /><text x="470" y="1980" font-size="10" style="fill:blue">tramo</text><path d="M440 990 C460 990 440 1990 460 1990" style="fill:transparent;stroke:black" /><text x="470" y="1990" font-size="8" style="fill:black">distancia: 340 m</text><text x="470" y="2000" font-size="8" style="fill:black">sector: 3</text><text x="470" y="2010" font-size="8" style="fill:black">latitud: 40,3736552</text><text x="470" y="2020" font-size="8" style="fill:black">longitud: 49,8549766</text><text x="470" y="2030" font-size="8" style="fill:black">altitud: -0,5168018</text></svg>