<?xml version='1.0' encoding='utf-8'?>
<svg xmlns="http://www.w3.org/2000/svg" version="2.0" width="1000" height="600" viewBox="500 -1000 6000 2000"><polyline points="600,-51.672200000000004&#10;833,-80.69524&#10;1280,-80.66015&#10;1435,-51.072039999999994&#10;1500,-80.69058&#10;1891,-51.669399999999996&#10;1921,-51.673899999999996&#10;2100,-51.07283&#10;2140,-51.07516&#10;2211,-51.074569999999994&#10;2270,-51.670249999999996&#10;2383,-51.67053000000001&#10;2700,-51.6683&#10;2880,232.02196&#10;3120,77.60836&#10;3453,-51.67248&#10;3651,-51.668009999999995&#10;3895,-51.67437&#10;4040,-51.665229999999994&#10;4433,-51.672470000000004&#10;5640,-51.67119&#10;6003,-51.662699999999994&#10;6003,-51.672200000000004&#10;" style="fill:white;stroke:red;stroke-width:4" /><text x="600" y="-51.672200000000004" style="writing-mode: tb; glyph-orientation-vertical: 0; font-size: 2em;">Tramo 1</text><text x="833" y="-80.69524" style="writing-mode: tb; glyph-orientation-vertical: 0; font-size: 2em;">Tramo 2</text><text x="1280" y="-80.66015" style="writing-mode: tb; glyph-orientation-vertical: 0; font-size: 2em;">Tramo 3</text><text x="1435" y="-51.072039999999994" style="writing-mode: tb; glyph-orientation-vertical: 0; font-size: 2em;">Tramo 4</text><text x="1500" y="-80.69058" style="writing-mode: tb; glyph-orientation-vertical: 0; font-size: 2em;">Tramo 5</text><text x="1891" y="-51.669399999999996" style="writing-mode: tb; glyph-orientation-vertical: 0; font-size: 2em;">Tramo 6</text><text x="1921" y="-51.673899999999996" style="writing-mode: tb; glyph-orientation-vertical: 0; font-size: 2em;">Tramo 7</text><text x="2100" y="-51.07283" style="writing-mode: tb; glyph-orientation-vertical: 0; font-size: 2em;">Tramo 8</text><text x="2140" y="-51.07516" style="writing-mode: tb; glyph-orientation-vertical: 0; font-size: 2em;">Tramo 9</text><text x="2211" y="-51.074569999999994" style="writing-mode: tb; glyph-orientation-vertical: 0; font-size: 2em;">Tramo 10</text><text x="2270" y="-51.670249999999996" style="writing-mode: tb; glyph-orientation-vertical: 0; font-size: 2em;">Tramo 11</text><text x="2383" y="-51.67053000000001" style="writing-mode: tb; glyph-orientation-vertical: 0; font-size: 2em;">Tramo 12</text><text x="2700" y="-51.6683" style="writing-mode: tb; glyph-orientation-vertical: 0; font-size: 2em;">Tramo 13</text><text x="2880" y="232.02196" style="writing-mode: tb; glyph-orientation-vertical: 0; font-size: 2em;">Tramo 14</text><text x="3120" y="77.60836" style="writing-mode: tb; glyph-orientation-vertical: 0; font-size: 2em;">Tramo 15</text><text x="3453" y="-51.67248" style="writing-mode: tb; glyph-orientation-vertical: 0; font-size: 2em;">Tramo 16</text><text x="3651" y="-51.668009999999995" style="writing-mode: tb; glyph-orientation-vertical: 0; font-size: 2em;">Tramo 17</text><text x="3895" y="-51.67437" style="writing-mode: tb; glyph-orientation-vertical: 0; font-size: 2em;">Tramo 18</text><text x="4040" y="-51.665229999999994" style="writing-mode: tb; glyph-orientation-vertical: 0; font-size: 2em;">Tramo 19</text><text x="4433" y="-51.672470000000004" style="writing-mode: tb; glyph-orientation-vertical: 0; font-size: 2em;">Tramo 20</text><text x="5640" y="-51.67119" style="writing-mode: tb; glyph-orientation-vertical: 0; font-size: 2em;">Tramo 21</text><text x="6003" y="-51.662699999999994" style="writing-mode: tb; glyph-orientation-vertical: 0; font-size: 2em;">Tramo 22</text><text x="6003" y="-51.672200000000004" style="writing-mode: tb; glyph-orientation-vertical: 0; font-size: 2em;">Tramo 23</text></svg>